<svg xmlns="http://www.w3.org/2000/svg" xmlns:xlink="http://www.w3.org/1999/xlink" width="65" zoomAndPan="magnify" viewBox="0 0 375 374.999991" height="65" preserveAspectRatio="xMidYMid meet" version="1.0"><defs><g/><clipPath id="244bd62010"><path d="M 170 130.8125 L 209.59375 130.8125 L 209.59375 183 L 170 183 Z M 170 130.8125 " clip-rule="nonzero"/></clipPath><clipPath id="ae98a9a6f3"><path d="M 165.34375 136 L 200 136 L 200 195 L 165.34375 195 Z M 165.34375 136 " clip-rule="nonzero"/></clipPath><clipPath id="ce7316101d"><path d="M 101.273438 184.730469 L 119.273438 184.730469 L 119.273438 201.980469 L 101.273438 201.980469 Z M 101.273438 184.730469 " clip-rule="nonzero"/></clipPath><clipPath id="504af477dd"><path d="M 260.3125 184.730469 L 278.3125 184.730469 L 278.3125 201.980469 L 260.3125 201.980469 Z M 260.3125 184.730469 " clip-rule="nonzero"/></clipPath></defs><rect x="-37.5" width="450" fill="#ffffff" y="-37.499999" height="449.999989" fill-opacity="1"/><rect x="-37.5" width="450" fill="#fdf0eb" y="-37.499999" height="449.999989" fill-opacity="1"/><g fill="#545454" fill-opacity="1"><g transform="translate(129.315782, 262.764268)"><g><path d="M 5.8125 -4.234375 L 9.46875 -0.796875 L 8.734375 -0.03125 L 5.875 -2.71875 L 4.609375 -1.359375 L 7.046875 0.953125 L 6.328125 1.71875 L 3.890625 -0.59375 L 2.484375 0.890625 L 5.34375 3.578125 L 4.625 4.34375 L 0.96875 0.90625 Z M 5.8125 -4.234375 "/></g></g></g><g fill="#545454" fill-opacity="1"><g transform="translate(135.743319, 268.744575)"><g><path d="M 10.375 -1 L 3.71875 2.8125 L 2.796875 2.109375 L 4.671875 -5.3125 L 5.65625 -4.5625 L 4.484375 -0.109375 C 4.421875 0.148438 4.351562 0.414062 4.28125 0.6875 C 4.207031 0.96875 4.132812 1.234375 4.0625 1.484375 C 4.28125 1.335938 4.507812 1.191406 4.75 1.046875 C 5 0.898438 5.238281 0.757812 5.46875 0.625 L 9.34375 -1.78125 Z M 10.375 -1 "/></g></g></g><g fill="#545454" fill-opacity="1"><g transform="translate(143.375229, 274.407454)"><g><path d="M 4.78125 -5.375 L 9.078125 -2.796875 L 8.53125 -1.875 L 5.171875 -3.890625 L 4.203125 -2.296875 L 7.078125 -0.578125 L 6.546875 0.3125 L 3.671875 -1.40625 L 2.609375 0.359375 L 5.96875 2.375 L 5.4375 3.265625 L 1.140625 0.6875 Z M 4.78125 -5.375 "/></g></g></g><g fill="#545454" fill-opacity="1"><g transform="translate(150.936065, 278.916481)"><g><path d="M 9.203125 -3.578125 L 10.1875 -3.140625 L 7.265625 3.296875 L 6.328125 2.875 L 4.28125 -4.046875 C 4.15625 -3.640625 4.019531 -3.238281 3.875 -2.84375 C 3.738281 -2.445312 3.585938 -2.054688 3.421875 -1.671875 L 2.203125 1 L 1.203125 0.546875 L 4.125 -5.890625 L 5.0625 -5.46875 L 7.046875 1.578125 C 7.140625 1.253906 7.25 0.914062 7.375 0.5625 C 7.507812 0.21875 7.648438 -0.125 7.796875 -0.46875 C 7.953125 -0.820312 8.097656 -1.148438 8.234375 -1.453125 Z M 9.203125 -3.578125 "/></g></g></g><g fill="#545454" fill-opacity="1"><g transform="translate(160.702306, 283.192618)"><g><path d="M 2.734375 0.890625 L 4.59375 -4.8125 L 2.4375 -5.515625 L 2.765625 -6.53125 L 8.15625 -4.765625 L 7.828125 -3.75 L 5.625 -4.484375 L 3.765625 1.21875 Z M 2.734375 0.890625 "/></g></g></g><g fill="#545454" fill-opacity="1"><g transform="translate(168.473009, 285.609443)"><g/></g></g><g fill="#545454" fill-opacity="1"><g transform="translate(173.254437, 286.830412)"><g><path d="M 5.4375 -6.328125 C 6.007812 -6.234375 6.5 -6.0625 6.90625 -5.8125 C 7.3125 -5.5625 7.640625 -5.25 7.890625 -4.875 C 8.148438 -4.507812 8.320312 -4.109375 8.40625 -3.671875 C 8.488281 -3.234375 8.492188 -2.773438 8.421875 -2.296875 C 8.328125 -1.660156 8.101562 -1.09375 7.75 -0.59375 C 7.40625 -0.101562 6.945312 0.253906 6.375 0.484375 C 5.800781 0.710938 5.132812 0.769531 4.375 0.65625 L 1.3125 0.203125 L 2.375 -6.78125 Z M 4.46875 -0.375 C 5.039062 -0.289062 5.523438 -0.332031 5.921875 -0.5 C 6.316406 -0.664062 6.628906 -0.921875 6.859375 -1.265625 C 7.085938 -1.609375 7.238281 -2.003906 7.3125 -2.453125 C 7.375 -2.890625 7.347656 -3.304688 7.234375 -3.703125 C 7.117188 -4.109375 6.894531 -4.453125 6.5625 -4.734375 C 6.226562 -5.015625 5.773438 -5.195312 5.203125 -5.28125 L 3.28125 -5.578125 L 2.546875 -0.671875 Z M 4.46875 -0.375 "/></g></g></g><g fill="#545454" fill-opacity="1"><g transform="translate(183.295696, 288.236133)"><g><path d="M 1.609375 -7.015625 L 6.625 -6.8125 L 6.578125 -5.75 L 2.65625 -5.90625 L 2.578125 -4.046875 L 5.9375 -3.921875 L 5.90625 -2.875 L 2.546875 -3 L 2.46875 -0.953125 L 6.390625 -0.796875 L 6.34375 0.25 L 1.328125 0.046875 Z M 1.609375 -7.015625 "/></g></g></g><g fill="#545454" fill-opacity="1"><g transform="translate(192.068434, 288.523765)"><g><path d="M 7.15625 -1.421875 C 7.007812 -1.253906 6.800781 -1.082031 6.53125 -0.90625 C 6.257812 -0.726562 5.941406 -0.570312 5.578125 -0.4375 C 5.222656 -0.3125 4.84375 -0.234375 4.4375 -0.203125 C 3.925781 -0.171875 3.445312 -0.222656 3 -0.359375 C 2.550781 -0.492188 2.148438 -0.707031 1.796875 -1 C 1.441406 -1.300781 1.15625 -1.671875 0.9375 -2.109375 C 0.726562 -2.546875 0.609375 -3.035156 0.578125 -3.578125 C 0.535156 -4.085938 0.597656 -4.566406 0.765625 -5.015625 C 0.929688 -5.460938 1.171875 -5.859375 1.484375 -6.203125 C 1.804688 -6.554688 2.179688 -6.832031 2.609375 -7.03125 C 3.046875 -7.238281 3.507812 -7.363281 4 -7.40625 C 4.414062 -7.425781 4.8125 -7.390625 5.1875 -7.296875 C 5.570312 -7.210938 5.910156 -7.085938 6.203125 -6.921875 C 6.492188 -6.765625 6.734375 -6.59375 6.921875 -6.40625 L 6.28125 -5.53125 C 5.96875 -5.78125 5.625 -5.976562 5.25 -6.125 C 4.882812 -6.28125 4.484375 -6.34375 4.046875 -6.3125 C 3.609375 -6.289062 3.203125 -6.164062 2.828125 -5.9375 C 2.460938 -5.71875 2.171875 -5.40625 1.953125 -5 C 1.734375 -4.601562 1.644531 -4.148438 1.6875 -3.640625 C 1.71875 -3.085938 1.867188 -2.628906 2.140625 -2.265625 C 2.421875 -1.910156 2.769531 -1.648438 3.1875 -1.484375 C 3.601562 -1.328125 4.046875 -1.265625 4.515625 -1.296875 C 4.992188 -1.328125 5.398438 -1.445312 5.734375 -1.65625 C 6.066406 -1.863281 6.34375 -2.070312 6.5625 -2.28125 Z M 7.15625 -1.421875 "/></g></g></g><g fill="#545454" fill-opacity="1"><g transform="translate(201.4797, 287.836161)"><g><path d="M 7.5625 -5.015625 C 7.65625 -4.515625 7.648438 -4.023438 7.546875 -3.546875 C 7.453125 -3.078125 7.269531 -2.648438 7 -2.265625 C 6.738281 -1.890625 6.394531 -1.566406 5.96875 -1.296875 C 5.539062 -1.035156 5.054688 -0.851562 4.515625 -0.75 C 3.984375 -0.644531 3.472656 -0.640625 2.984375 -0.734375 C 2.492188 -0.835938 2.050781 -1.015625 1.65625 -1.265625 C 1.269531 -1.523438 0.941406 -1.859375 0.671875 -2.265625 C 0.410156 -2.671875 0.234375 -3.125 0.140625 -3.625 C 0.046875 -4.125 0.0507812 -4.601562 0.15625 -5.0625 C 0.257812 -5.53125 0.441406 -5.957031 0.703125 -6.34375 C 0.972656 -6.726562 1.320312 -7.050781 1.75 -7.3125 C 2.175781 -7.582031 2.65625 -7.769531 3.1875 -7.875 C 3.726562 -7.976562 4.242188 -7.976562 4.734375 -7.875 C 5.222656 -7.78125 5.660156 -7.601562 6.046875 -7.34375 C 6.441406 -7.082031 6.769531 -6.753906 7.03125 -6.359375 C 7.289062 -5.960938 7.46875 -5.515625 7.5625 -5.015625 Z M 6.46875 -4.796875 C 6.382812 -5.273438 6.195312 -5.6875 5.90625 -6.03125 C 5.613281 -6.375 5.242188 -6.613281 4.796875 -6.75 C 4.359375 -6.894531 3.882812 -6.921875 3.375 -6.828125 C 2.863281 -6.734375 2.429688 -6.539062 2.078125 -6.25 C 1.722656 -5.957031 1.472656 -5.597656 1.328125 -5.171875 C 1.179688 -4.753906 1.148438 -4.304688 1.234375 -3.828125 C 1.328125 -3.347656 1.519531 -2.9375 1.8125 -2.59375 C 2.101562 -2.25 2.46875 -2.003906 2.90625 -1.859375 C 3.34375 -1.710938 3.816406 -1.6875 4.328125 -1.78125 C 4.835938 -1.875 5.269531 -2.066406 5.625 -2.359375 C 5.988281 -2.660156 6.242188 -3.019531 6.390625 -3.4375 C 6.535156 -3.863281 6.5625 -4.316406 6.46875 -4.796875 Z M 6.46875 -4.796875 "/></g></g></g><g fill="#545454" fill-opacity="1"><g transform="translate(211.825024, 285.789005)"><g><path d="M 5.25 -6.734375 C 5.382812 -6.296875 5.378906 -5.851562 5.234375 -5.40625 C 5.085938 -4.96875 4.832031 -4.601562 4.46875 -4.3125 L 7.015625 -2.1875 L 5.75 -1.796875 L 3.359375 -3.796875 L 1.53125 -3.21875 L 2.3125 -0.71875 L 1.265625 -0.390625 L -0.84375 -7.125 L 2.453125 -8.171875 C 2.804688 -8.273438 3.175781 -8.289062 3.5625 -8.21875 C 3.945312 -8.144531 4.289062 -7.984375 4.59375 -7.734375 C 4.90625 -7.484375 5.125 -7.148438 5.25 -6.734375 Z M 2.546875 -7.078125 L 0.515625 -6.4375 L 1.21875 -4.21875 L 3.40625 -4.90625 C 3.625 -4.976562 3.800781 -5.09375 3.9375 -5.25 C 4.082031 -5.40625 4.171875 -5.582031 4.203125 -5.78125 C 4.242188 -5.988281 4.234375 -6.191406 4.171875 -6.390625 C 4.109375 -6.609375 3.988281 -6.78125 3.8125 -6.90625 C 3.644531 -7.039062 3.453125 -7.117188 3.234375 -7.140625 C 3.015625 -7.171875 2.785156 -7.148438 2.546875 -7.078125 Z M 2.546875 -7.078125 "/></g></g></g><g fill="#545454" fill-opacity="1"><g transform="translate(220.992359, 282.831887)"><g><path d="M 5.96875 -2.640625 L 4.609375 -3.9375 L 1.46875 -2.546875 L 1.5 -0.671875 L 0.484375 -0.21875 L 0.375 -7.875 L 1.453125 -8.359375 L 7.046875 -3.125 Z M 1.453125 -5.515625 L 1.46875 -3.671875 L 3.78125 -4.703125 L 2.390625 -5.96875 C 2.222656 -6.144531 2.050781 -6.316406 1.875 -6.484375 C 1.707031 -6.660156 1.535156 -6.847656 1.359375 -7.046875 C 1.367188 -6.773438 1.382812 -6.507812 1.40625 -6.25 C 1.425781 -6 1.441406 -5.753906 1.453125 -5.515625 Z M 1.453125 -5.515625 "/></g></g></g><g fill="#545454" fill-opacity="1"><g transform="translate(229.695195, 278.865646)"><g><path d="M 2.5 -1.4375 L -0.484375 -6.640625 L -2.453125 -5.5 L -2.984375 -6.421875 L 1.9375 -9.25 L 2.46875 -8.328125 L 0.4375 -7.171875 L 3.421875 -1.96875 Z M 2.5 -1.4375 "/></g></g></g><g fill="#545454" fill-opacity="1"><g transform="translate(236.839881, 274.747376)"><g><path d="M 4.671875 -7.78125 C 4.960938 -7.375 5.164062 -6.9375 5.28125 -6.46875 C 5.40625 -6 5.425781 -5.53125 5.34375 -5.0625 C 5.257812 -4.601562 5.082031 -4.160156 4.8125 -3.734375 C 4.550781 -3.316406 4.195312 -2.945312 3.75 -2.625 C 3.320312 -2.300781 2.863281 -2.078125 2.375 -1.953125 C 1.894531 -1.828125 1.421875 -1.796875 0.953125 -1.859375 C 0.484375 -1.921875 0.046875 -2.078125 -0.359375 -2.328125 C -0.773438 -2.585938 -1.128906 -2.921875 -1.421875 -3.328125 C -1.722656 -3.742188 -1.929688 -4.179688 -2.046875 -4.640625 C -2.160156 -5.097656 -2.175781 -5.5625 -2.09375 -6.03125 C -2.007812 -6.5 -1.832031 -6.941406 -1.5625 -7.359375 C -1.300781 -7.785156 -0.957031 -8.160156 -0.53125 -8.484375 C -0.0820312 -8.804688 0.378906 -9.03125 0.859375 -9.15625 C 1.347656 -9.28125 1.828125 -9.304688 2.296875 -9.234375 C 2.765625 -9.171875 3.203125 -9.015625 3.609375 -8.765625 C 4.015625 -8.523438 4.367188 -8.195312 4.671875 -7.78125 Z M 3.765625 -7.125 C 3.472656 -7.519531 3.125 -7.804688 2.71875 -7.984375 C 2.3125 -8.171875 1.878906 -8.234375 1.421875 -8.171875 C 0.960938 -8.117188 0.519531 -7.9375 0.09375 -7.625 C -0.320312 -7.3125 -0.625 -6.945312 -0.8125 -6.53125 C -1.007812 -6.113281 -1.082031 -5.679688 -1.03125 -5.234375 C -0.988281 -4.796875 -0.820312 -4.378906 -0.53125 -3.984375 C -0.25 -3.585938 0.0976562 -3.296875 0.515625 -3.109375 C 0.929688 -2.929688 1.363281 -2.867188 1.8125 -2.921875 C 2.269531 -2.972656 2.707031 -3.15625 3.125 -3.46875 C 3.550781 -3.78125 3.863281 -4.144531 4.0625 -4.5625 C 4.257812 -4.988281 4.328125 -5.421875 4.265625 -5.859375 C 4.210938 -6.304688 4.046875 -6.726562 3.765625 -7.125 Z M 3.765625 -7.125 "/></g></g></g><g fill="#545454" fill-opacity="1"><g transform="translate(245.287913, 268.43585)"><g><path d="M 1.84375 -8.34375 C 2.15625 -8.007812 2.335938 -7.609375 2.390625 -7.140625 C 2.441406 -6.679688 2.367188 -6.238281 2.171875 -5.8125 L 5.40625 -5 L 4.40625 -4.109375 L 1.375 -4.890625 L -0.03125 -3.578125 L 1.765625 -1.65625 L 0.96875 -0.90625 L -3.84375 -6.078125 L -1.3125 -8.4375 C -1.039062 -8.6875 -0.71875 -8.859375 -0.34375 -8.953125 C 0.03125 -9.046875 0.410156 -9.046875 0.796875 -8.953125 C 1.191406 -8.859375 1.539062 -8.65625 1.84375 -8.34375 Z M -0.765625 -7.484375 L -2.328125 -6.046875 L -0.734375 -4.34375 L 0.953125 -5.90625 C 1.117188 -6.0625 1.226562 -6.238281 1.28125 -6.4375 C 1.34375 -6.644531 1.347656 -6.84375 1.296875 -7.03125 C 1.242188 -7.226562 1.148438 -7.40625 1.015625 -7.5625 C 0.859375 -7.726562 0.671875 -7.832031 0.453125 -7.875 C 0.242188 -7.925781 0.0351562 -7.914062 -0.171875 -7.84375 C -0.390625 -7.78125 -0.585938 -7.660156 -0.765625 -7.484375 Z M -0.765625 -7.484375 "/></g></g></g><g fill="#545454" fill-opacity="1"><g transform="translate(116.105909, 174.388799)"><g><path d="M -16.679688 -13.554688 L -18.792969 -5.160156 L -18.65625 -5.125 C -18.242188 -6.195312 -17.710938 -7.066406 -16.738281 -6.824219 L -1.460938 -2.980469 C -0.488281 -2.734375 -0.160156 -1.648438 -0.03125 -0.4375 L 0.101562 -0.40625 L 2.078125 -8.257812 C 3.585938 -14.25 1.25 -19.917969 -5.144531 -21.527344 C -10.8125 -22.953125 -15.035156 -20.085938 -16.679688 -13.554688 Z M 1.816406 -9.042969 C 1.421875 -7.476562 0.777344 -6.40625 0.0429688 -5.527344 L -17.152344 -9.855469 L -16.519531 -12.363281 C -15.027344 -18.300781 -10.210938 -19.644531 -4.460938 -18.199219 C 1.773438 -16.628906 2.902344 -13.363281 1.816406 -9.042969 Z M 1.816406 -9.042969 "/></g></g></g><g fill="#545454" fill-opacity="1"><g transform="translate(121.198127, 154.739796)"><g><path d="M 3.601562 -17.617188 C 5.367188 -14.152344 6.273438 -12.179688 4.769531 -9.480469 L 2.226562 -4.910156 L -5.703125 -9.324219 L -3.804688 -12.730469 C -2.371094 -15.304688 -1.308594 -15.671875 0.816406 -15.25 L -4.484375 -18.203125 C -3.007812 -16.617188 -2.757812 -15.523438 -4.195312 -12.945312 L -6.089844 -9.542969 L -14.015625 -13.957031 L -11.742188 -18.042969 C -10.238281 -20.742188 -8.46875 -21.058594 -5.25 -21.402344 L -5.246094 -21.527344 L -9.558594 -22.878906 L -16.816406 -9.84375 L -16.695312 -9.777344 C -16.019531 -10.707031 -15.277344 -11.410156 -14.402344 -10.921875 L -0.640625 -3.253906 C 0.234375 -2.769531 0.273438 -1.632812 0.0820312 -0.433594 L 0.203125 -0.363281 L 7.191406 -12.910156 L 8.1875 -13.441406 L 7.734375 -13.882812 L 3.703125 -17.6875 Z M 3.601562 -17.617188 "/></g></g></g><g fill="#545454" fill-opacity="1"><g transform="translate(129.318251, 139.509127)"><g><path d="M -2.84375 -24.945312 L -2.765625 -24.867188 C -1.4375 -25.746094 -0.300781 -26.191406 0.691406 -23.78125 L 6.691406 -9.183594 L -7.71875 -15.191406 C -10.152344 -16.207031 -9.792969 -17.453125 -8.546875 -18.960938 L -8.628906 -19.039062 L -13.535156 -14.027344 C -12.984375 -14.070312 -11.996094 -13.886719 -11.046875 -13.5 L 6.507812 -6.25 L 6.867188 -5.78125 L 7.402344 -8.917969 L 1.136719 -24.199219 C 0.148438 -26.609375 0.238281 -27.457031 0.816406 -28.527344 L 0.738281 -28.605469 Z M -2.84375 -24.945312 "/></g></g></g><g fill="#545454" fill-opacity="1"><g transform="translate(144.888802, 124.615527)"><g><path d="M 0.347656 -0.230469 L 6.222656 -4.160156 L 6.144531 -4.277344 C 5.121094 -3.757812 4.140625 -3.472656 3.582031 -4.304688 L -5.484375 -17.863281 C -6.039062 -18.695312 -5.398438 -19.492188 -4.527344 -20.242188 L -4.605469 -20.355469 L -10.484375 -16.425781 L -10.40625 -16.3125 C -9.378906 -16.832031 -8.398438 -17.117188 -7.84375 -16.285156 L 1.222656 -2.726562 C 1.78125 -1.894531 1.140625 -1.097656 0.269531 -0.347656 Z M 0.347656 -0.230469 "/></g></g></g><g fill="#545454" fill-opacity="1"><g transform="translate(151.302027, 119.594054)"><g><path d="M 6.695312 -23.800781 L 6.746094 -23.671875 C 7.855469 -23.976562 9.082031 -23.550781 10.519531 -20.046875 L 14.351562 -10.699219 L -1.285156 -18.90625 C -2.078125 -19.300781 -2.5 -19.671875 -2.808594 -19.90625 L -7.136719 -18.132812 C -6.140625 -18.058594 -5.253906 -17.730469 -3.957031 -17.058594 L 0.941406 -5.109375 C 2.378906 -1.605469 1.59375 -0.953125 0.589844 -0.394531 L 0.644531 -0.265625 L 5.074219 -2.082031 L 5.019531 -2.210938 C 3.910156 -1.90625 2.683594 -2.332031 1.246094 -5.835938 L -3.1875 -16.652344 L 16.957031 -6.113281 L 16.988281 -6.183594 C 16.554688 -7.089844 15.929688 -8.398438 14.832031 -11.074219 L 10.847656 -20.785156 C 9.414062 -24.285156 10.199219 -24.9375 11.203125 -25.5 L 11.148438 -25.628906 Z M 6.695312 -23.800781 "/></g></g></g><g fill="#545454" fill-opacity="1"><g transform="translate(169.889718, 112.108506)"><g><path d="M 16.304688 -7.589844 C 14.566406 -4.109375 13.523438 -2.207031 10.457031 -1.808594 L 5.269531 -1.132812 L 4.101562 -10.132812 L 7.964844 -10.632812 C 10.890625 -11.011719 11.816406 -10.375 12.742188 -8.417969 L 11.960938 -14.4375 C 11.566406 -12.308594 10.832031 -11.453125 7.90625 -11.074219 L 4.042969 -10.574219 L 2.875 -19.570312 L 7.511719 -20.171875 C 10.574219 -20.570312 11.886719 -19.335938 14.074219 -16.957031 L 14.179688 -17.027344 L 12.699219 -21.296875 L -2.09375 -19.375 L -2.078125 -19.234375 C -0.929688 -19.246094 0.078125 -19.066406 0.207031 -18.074219 L 2.234375 -2.453125 C 2.363281 -1.457031 1.472656 -0.753906 0.394531 -0.191406 L 0.414062 -0.0546875 L 14.65625 -1.902344 L 15.671875 -1.417969 L 15.761719 -2.046875 L 16.421875 -7.550781 Z M 16.304688 -7.589844 "/></g></g></g><g fill="#545454" fill-opacity="1"><g transform="translate(187.897101, 110.320969)"><g/></g></g><g fill="#545454" fill-opacity="1"><g transform="translate(193.828275, 109.8739)"><g><path d="M 13.230469 -16.9375 L 4.796875 -18.886719 L 4.765625 -18.75 C 5.847656 -18.359375 6.726562 -17.839844 6.5 -16.863281 L 2.949219 -1.515625 C 2.726562 -0.539062 1.644531 -0.191406 0.4375 -0.0429688 L 0.40625 0.09375 L 8.296875 1.917969 C 14.316406 3.3125 19.9375 0.871094 21.425781 -5.558594 C 22.742188 -11.25 19.792969 -15.417969 13.230469 -16.9375 Z M 9.074219 1.640625 C 7.503906 1.277344 6.417969 0.65625 5.527344 -0.0625 L 9.523438 -17.335938 L 12.046875 -16.753906 C 18.011719 -15.375 19.445312 -10.585938 18.109375 -4.808594 C 16.660156 1.453125 13.414062 2.644531 9.074219 1.640625 Z M 9.074219 1.640625 "/></g></g></g><g fill="#545454" fill-opacity="1"><g transform="translate(213.572683, 114.587101)"><g><path d="M 17.683594 3.261719 C 14.25 5.09375 12.296875 6.039062 9.570312 4.589844 L 4.953125 2.128906 L 9.214844 -5.878906 L 12.652344 -4.050781 C 15.257812 -2.664062 15.640625 -1.605469 15.265625 0.523438 L 18.113281 -4.832031 C 16.558594 -3.328125 15.46875 -3.054688 12.863281 -4.441406 L 9.421875 -6.273438 L 13.683594 -14.28125 L 17.8125 -12.085938 C 20.539062 -10.632812 20.894531 -8.871094 21.296875 -5.660156 L 21.421875 -5.65625 L 22.691406 -9.996094 L 9.519531 -17.003906 L 9.457031 -16.878906 C 10.398438 -16.222656 11.113281 -15.492188 10.644531 -14.609375 L 3.242188 -0.703125 C 2.773438 0.183594 1.636719 0.242188 0.433594 0.0742188 L 0.367188 0.195312 L 13.046875 6.941406 L 13.59375 7.929688 L 14.03125 7.464844 L 17.757812 3.363281 Z M 17.683594 3.261719 "/></g></g></g><g fill="#545454" fill-opacity="1"><g transform="translate(228.955227, 122.513342)"><g><path d="M 16.148438 10.792969 L 16.101562 10.558594 C 14.21875 10.824219 11.859375 9.808594 10.332031 8.386719 C 6.722656 5.03125 6.992188 -1.101562 10.933594 -5.34375 C 14.476562 -9.15625 18.574219 -9.066406 21.304688 -6.527344 C 24.425781 -3.628906 23.527344 0.363281 19.925781 2.03125 L 19.96875 2.105469 L 25.890625 0.925781 C 26.015625 -1.089844 25.292969 -3.621094 22.703125 -6.027344 C 18.503906 -9.933594 11.925781 -10.992188 7.550781 -6.28125 C 3.476562 -1.898438 4.160156 4.398438 8.460938 8.394531 C 11.109375 10.859375 13.984375 11.363281 16.148438 10.792969 Z M 16.148438 10.792969 "/></g></g></g><g fill="#545454" fill-opacity="1"><g transform="translate(243.651668, 135.727766)"><g><path d="M 23.082031 0.167969 C 20.160156 -4.863281 14.464844 -6.960938 9.050781 -3.8125 C 3.636719 -0.664062 2.644531 5.320312 5.566406 10.351562 C 8.476562 15.355469 14.171875 17.453125 19.585938 14.304688 C 25 11.15625 25.992188 5.171875 23.082031 0.167969 Z M 6.558594 11.058594 C 4.042969 6.730469 7.144531 0.773438 12.003906 -2.054688 C 16.070312 -4.417969 20.144531 -3.890625 22.078125 -0.570312 C 24.59375 3.761719 21.492188 9.71875 16.652344 12.53125 C 12.5625 14.910156 8.488281 14.382812 6.558594 11.058594 Z M 6.558594 11.058594 "/></g></g></g><g fill="#545454" fill-opacity="1"><g transform="translate(254.925453, 155.520207)"><g><path d="M 7.21875 14.171875 L 10.949219 9.714844 C 12.566406 12.847656 15.277344 14.335938 18.089844 13.65625 C 21.417969 12.847656 22.390625 9.660156 21.335938 5.308594 L 19.03125 -4.1875 L 18.898438 -4.152344 C 19.03125 -3.011719 18.960938 -1.992188 17.988281 -1.757812 L 2.140625 2.085938 C 1.164062 2.324219 0.636719 1.449219 0.234375 0.371094 L 0.0976562 0.40625 L 1.765625 7.277344 L 1.898438 7.242188 C 1.765625 6.101562 1.835938 5.082031 2.808594 4.847656 L 9.027344 3.335938 L 9.863281 6.773438 L 9.921875 7.015625 L 3.898438 14.0625 L 3.4375 14.171875 L 4.625 19.070312 L 4.707031 19.050781 C 5.070312 17.472656 5.414062 16.300781 7.21875 14.171875 Z M 10.109375 3.074219 L 19.714844 0.746094 L 20.492188 3.964844 C 21.726562 9.050781 19.136719 10.535156 16.433594 11.191406 C 12.671875 12.105469 11.359375 10.820312 10.546875 7.464844 C 10.191406 6.003906 10.054688 4.605469 10.109375 3.074219 Z M 10.109375 3.074219 "/></g></g></g><path fill="#766559" d="M 190.316406 239.839844 C 190.695312 239.492188 191.507812 239.0625 192.066406 239.410156 C 192.570312 239.726562 192.578125 240.585938 192.328125 241.0625 C 192.046875 241.597656 191.558594 241.988281 191.011719 242.234375 C 190.378906 242.523438 189.742188 242.574219 189.148438 242.429688 C 189.179688 242.054688 189.253906 241.679688 189.382812 241.300781 C 189.546875 240.808594 189.898438 240.21875 190.316406 239.839844 M 195.957031 254.410156 C 195.398438 252.550781 194.207031 251.042969 192.976562 249.582031 C 192.363281 248.851562 191.765625 248.105469 191.160156 247.371094 C 190.605469 246.695312 190.105469 245.972656 189.722656 245.1875 C 189.484375 244.703125 189.316406 244.222656 189.21875 243.742188 C 189.628906 243.796875 190.054688 243.785156 190.492188 243.703125 C 191.886719 243.4375 193.21875 242.441406 193.613281 241.039062 C 193.847656 240.203125 193.679688 239.222656 193.09375 238.566406 C 192.429688 237.832031 191.355469 237.726562 190.445312 237.988281 C 188.871094 238.4375 187.835938 239.773438 187.445312 241.316406 C 186.515625 240.222656 186.148438 238.707031 186.125 237.300781 C 186.097656 235.585938 186.476562 233.882812 187.09375 232.304688 C 187.734375 230.675781 188.328125 229.066406 189.050781 227.476562 C 190.511719 224.257812 191.917969 220.828125 192.304688 217.289062 C 192.714844 213.546875 191.953125 209.839844 191.027344 206.226562 C 190.804688 205.363281 190.519531 204.480469 190.433594 203.59375 C 190.339844 202.628906 190.042969 201.675781 189.777344 200.742188 C 189.289062 199.003906 188.835938 197.257812 188.644531 195.457031 C 188.546875 194.542969 188.523438 193.632812 188.601562 192.714844 C 188.65625 192.03125 187.496094 191.863281 187.390625 192.554688 C 187.089844 194.515625 187.039062 196.46875 187.296875 198.4375 C 187.429688 199.453125 187.574219 200.492188 187.828125 201.488281 C 187.945312 201.941406 188.070312 202.386719 188.195312 202.839844 C 188.355469 203.40625 188.601562 203.886719 188.84375 204.417969 C 189.230469 205.273438 189.484375 206.234375 189.769531 207.128906 C 190.074219 208.101562 190.371094 209.078125 190.625 210.066406 C 191.097656 211.902344 191.316406 213.84375 191.242188 215.738281 C 191.089844 219.566406 189.074219 222.898438 187.46875 226.257812 C 187.070312 227.097656 186.691406 227.945312 186.328125 228.796875 C 185.949219 229.691406 185.527344 230.605469 185.300781 231.550781 C 184.871094 233.347656 184.550781 235.222656 184.640625 237.078125 C 184.71875 238.796875 185.183594 240.59375 186.257812 241.96875 C 186.546875 242.339844 186.882812 242.664062 187.246094 242.933594 C 187.242188 244.226562 187.613281 245.480469 188.285156 246.628906 C 188.785156 247.484375 189.414062 248.269531 190.074219 249.011719 C 190.714844 249.738281 191.464844 250.359375 192.136719 251.050781 C 193.480469 252.433594 194.847656 254.085938 195.152344 256.046875 C 195.707031 259.589844 192.003906 262.007812 189.363281 263.480469 C 187.820312 264.339844 186.289062 265.164062 184.941406 266.320312 C 183.640625 267.433594 182.4375 268.871094 182.023438 270.570312 C 181.820312 271.40625 181.84375 272.226562 182.089844 273.054688 C 182.285156 273.707031 183.226562 273.429688 183.101562 272.773438 C 182.453125 269.34375 185.609375 266.734375 188.230469 265.175781 C 190.851562 263.617188 194.023438 262.160156 195.519531 259.339844 C 196.320312 257.828125 196.449219 256.039062 195.957031 254.410156 " fill-opacity="1" fill-rule="nonzero"/><g clip-path="url(#244bd62010)"><path fill="#545454" d="M 174.308594 137.070312 C 172.484375 142.332031 170.425781 147.414062 170.65625 153.089844 C 170.855469 158.042969 172.367188 163.226562 174.097656 167.847656 C 175.578125 171.8125 178.285156 174.976562 181.75 177.367188 C 185.4375 179.914062 189.386719 181.707031 193.824219 182.300781 C 194.703125 182.417969 195.273438 182.179688 196.320312 181.640625 C 197.1875 181.195312 197.980469 180.621094 198.84375 180.171875 C 198.914062 180.136719 198.980469 180.105469 199.050781 180.070312 C 200.285156 178.429688 201.515625 176.816406 202.867188 175.503906 C 203.523438 174.714844 204.140625 173.875 204.710938 172.992188 C 207.558594 168.566406 209.25 163.019531 209.25 156.992188 C 209.25 142.535156 199.492188 130.8125 187.453125 130.8125 C 182.464844 130.8125 177.871094 132.832031 174.195312 136.21875 C 174.355469 136.457031 174.417969 136.753906 174.308594 137.070312 " fill-opacity="1" fill-rule="nonzero"/></g><g clip-path="url(#ae98a9a6f3)"><path fill="#545454" d="M 165.652344 156.996094 C 165.652344 163.019531 167.347656 168.566406 170.195312 172.992188 C 170.765625 173.878906 171.378906 174.714844 172.039062 175.519531 C 176.058594 180.066406 179.117188 186.96875 185.296875 188.507812 C 184.972656 189.222656 184.609375 189.925781 184.257812 190.628906 C 183.214844 190.953125 182.480469 191.753906 183.078125 192.890625 C 183.597656 193.878906 184.730469 194.191406 185.773438 194.105469 C 186.351562 194.054688 186.882812 193.898438 187.414062 193.675781 C 188.085938 193.394531 188.730469 193.3125 189.402344 193.136719 C 189.773438 193.152344 190.140625 193.15625 190.511719 193 C 191.574219 192.558594 191.820312 191.34375 191.265625 190.390625 C 190.753906 189.515625 189.414062 189.363281 188.914062 188.605469 C 193.308594 187.835938 196.183594 183.875 199.046875 180.070312 C 198.980469 180.105469 198.910156 180.136719 198.84375 180.171875 C 197.976562 180.621094 197.183594 181.199219 196.316406 181.640625 C 195.269531 182.179688 194.699219 182.417969 193.820312 182.300781 C 189.382812 181.707031 185.4375 179.917969 181.746094 177.367188 C 178.285156 174.976562 175.574219 171.816406 174.09375 167.851562 C 172.367188 163.226562 170.851562 158.042969 170.652344 153.09375 C 170.421875 147.414062 172.480469 142.332031 174.308594 137.070312 C 174.417969 136.757812 174.351562 136.457031 174.195312 136.21875 C 169.003906 141.003906 165.652344 148.527344 165.652344 156.996094 " fill-opacity="1" fill-rule="nonzero"/></g><path fill="#545454" d="M 190.679688 191.355469 C 190.46875 191.144531 190.203125 191.039062 189.90625 191.042969 C 189.554688 191.046875 189.355469 191.222656 189.167969 191.5 C 189.175781 191.492188 189.183594 191.480469 189.191406 191.472656 C 189.140625 191.535156 189.09375 191.59375 189.035156 191.628906 C 188.898438 191.707031 188.730469 191.707031 188.578125 191.722656 C 188.347656 191.746094 188.121094 191.738281 187.890625 191.722656 C 187.679688 191.652344 187.445312 191.679688 187.222656 191.699219 C 186.90625 191.726562 186.597656 191.882812 186.320312 192.035156 C 186.121094 192.144531 185.925781 192.238281 185.738281 192.324219 C 185.65625 192.363281 185.570312 192.421875 185.480469 192.449219 C 185.421875 192.46875 185.421875 192.480469 185.421875 192.484375 C 185.421875 192.480469 185.40625 192.46875 185.355469 192.453125 C 185.027344 192.335938 184.742188 192.816406 185.011719 193.042969 C 185.199219 193.203125 185.4375 193.386719 185.679688 193.449219 C 185.980469 193.527344 186.273438 193.480469 186.574219 193.414062 C 186.863281 193.351562 187.144531 193.277344 187.421875 193.167969 C 187.6875 193.058594 188.027344 192.820312 188.191406 192.546875 C 188.308594 192.425781 188.425781 192.296875 188.554688 192.191406 C 188.679688 192.089844 188.957031 191.84375 189.136719 191.875 C 189.148438 191.894531 189.164062 191.914062 189.179688 191.929688 C 189.289062 192.207031 189.464844 192.429688 189.726562 192.589844 C 190.492188 193.058594 191.304688 191.988281 190.679688 191.355469 " fill-opacity="1" fill-rule="nonzero"/><path fill="#766559" d="M 201.269531 144.035156 C 201.160156 143.417969 200.988281 142.875 200.6875 142.324219 C 200.441406 141.867188 200.183594 141.421875 199.878906 141 C 199.253906 140.136719 198.582031 139.25 197.746094 138.574219 C 197.34375 138.25 196.921875 137.925781 196.457031 137.699219 C 195.984375 137.472656 195.484375 137.402344 194.984375 137.261719 C 194.4375 137.105469 194.042969 137.953125 194.585938 138.207031 C 194.65625 138.242188 194.808594 138.285156 194.871094 138.332031 C 194.957031 138.390625 195.015625 138.519531 195.082031 138.601562 C 195.226562 138.773438 195.375 138.941406 195.515625 139.117188 C 195.75 139.40625 195.945312 139.726562 196.152344 140.039062 C 196.671875 140.828125 197.1875 141.632812 197.648438 142.460938 C 197.875 142.875 198.117188 143.28125 198.335938 143.699219 C 198.476562 143.964844 198.601562 144.214844 198.792969 144.453125 C 198.871094 144.554688 198.953125 144.652344 199.03125 144.753906 C 199.054688 144.785156 199.078125 144.8125 199.101562 144.84375 C 199.109375 144.851562 199.113281 144.859375 199.121094 144.871094 C 199.667969 145.570312 200.214844 146.402344 200.882812 147.0625 C 201.023438 147.203125 201.292969 147.148438 201.339844 146.941406 C 201.546875 146.023438 201.429688 144.980469 201.269531 144.035156 " fill-opacity="1" fill-rule="nonzero"/><path fill="#766559" d="M 204.449219 158.046875 C 204.351562 157.316406 204.183594 156.621094 204.007812 155.90625 C 203.824219 155.171875 203.554688 154.464844 203.355469 153.734375 C 203.140625 152.925781 202.925781 152.121094 202.722656 151.308594 C 202.625 150.917969 202.535156 150.515625 202.421875 150.128906 C 202.28125 149.667969 201.949219 149.332031 201.785156 148.882812 C 201.722656 148.710938 201.425781 148.71875 201.4375 148.929688 C 201.464844 149.300781 201.355469 149.613281 201.335938 149.976562 C 201.316406 150.339844 201.429688 150.738281 201.488281 151.097656 C 201.601562 151.816406 201.726562 152.539062 201.78125 153.261719 C 201.832031 153.964844 201.925781 154.660156 201.894531 155.363281 C 201.859375 156.082031 201.875 156.832031 201.902344 157.550781 C 201.949219 158.964844 201.960938 160.367188 201.929688 161.78125 C 201.921875 162.109375 201.910156 162.4375 201.890625 162.765625 C 201.878906 162.929688 201.867188 163.09375 201.855469 163.257812 C 201.839844 163.507812 201.898438 163.753906 201.898438 164 C 201.890625 164.050781 201.875 164.261719 201.871094 164.308594 C 201.867188 164.472656 201.867188 164.628906 201.875 164.796875 C 201.898438 165.121094 201.914062 165.441406 201.898438 165.765625 C 201.875 166.15625 201.84375 166.539062 201.863281 166.933594 C 201.882812 167.296875 201.890625 167.628906 201.835938 167.992188 C 201.722656 168.726562 201.535156 169.449219 201.4375 170.179688 C 201.417969 170.34375 201.667969 170.441406 201.773438 170.320312 C 202.191406 169.820312 202.511719 169.203125 202.800781 168.625 C 202.941406 168.339844 203.058594 168.039062 203.214844 167.765625 C 203.390625 167.453125 203.585938 167.164062 203.722656 166.832031 C 203.867188 166.492188 203.957031 166.132812 204.074219 165.78125 C 204.179688 165.449219 204.332031 165.132812 204.410156 164.792969 C 204.578125 164.042969 204.699219 163.320312 204.730469 162.554688 C 204.792969 161.039062 204.65625 159.546875 204.449219 158.046875 " fill-opacity="1" fill-rule="nonzero"/><path fill="#766559" d="M 200.824219 171.832031 C 200.546875 171.765625 200.3125 171.914062 200.21875 172.175781 C 200.203125 172.210938 200.191406 172.25 200.175781 172.285156 C 200.167969 172.300781 200.164062 172.320312 200.15625 172.335938 C 200.15625 172.339844 200.152344 172.34375 200.152344 172.34375 C 200.148438 172.351562 200.144531 172.363281 200.144531 172.367188 C 200.136719 172.382812 200.128906 172.402344 200.121094 172.417969 C 200.105469 172.453125 200.085938 172.488281 200.070312 172.523438 C 200 172.671875 199.921875 172.816406 199.835938 172.957031 C 199.753906 173.09375 199.664062 173.226562 199.570312 173.351562 C 199.523438 173.414062 199.480469 173.476562 199.441406 173.542969 C 199.390625 173.621094 199.347656 173.695312 199.335938 173.792969 C 199.339844 173.769531 199.320312 173.949219 199.335938 173.84375 C 199.347656 173.746094 199.324219 173.925781 199.324219 173.945312 C 199.328125 174.140625 199.507812 174.375 199.730469 174.347656 C 199.78125 174.34375 199.824219 174.332031 199.863281 174.320312 C 199.945312 174.308594 200.019531 174.289062 200.09375 174.230469 C 200.136719 174.195312 200.175781 174.160156 200.214844 174.121094 C 200.292969 174.039062 200.363281 173.949219 200.433594 173.859375 C 200.53125 173.71875 200.625 173.578125 200.710938 173.433594 C 200.894531 173.117188 201.046875 172.78125 201.171875 172.4375 C 201.257812 172.195312 201.070312 171.886719 200.824219 171.832031 " fill-opacity="1" fill-rule="nonzero"/><path fill="#766559" d="M 206.199219 154.351562 C 206.019531 153.785156 205.8125 153.226562 205.6875 152.648438 C 205.613281 152.316406 205.582031 151.980469 205.578125 151.644531 C 205.578125 151.519531 205.574219 151.394531 205.574219 151.265625 C 205.574219 151.261719 205.5625 150.925781 205.523438 150.957031 C 205.578125 150.832031 205.703125 150.703125 205.742188 150.5625 C 205.777344 150.433594 205.777344 150.28125 205.804688 150.148438 C 205.871094 149.808594 205.925781 149.484375 205.898438 149.136719 C 205.851562 148.503906 205.65625 147.867188 205.515625 147.25 C 205.390625 146.710938 205.238281 146.222656 205.015625 145.714844 C 204.597656 144.769531 203.976562 143.980469 203.277344 143.230469 C 202.882812 142.808594 202.121094 143.367188 202.460938 143.859375 C 202.988281 144.613281 203.058594 145.585938 203.128906 146.484375 C 203.171875 147.015625 203.277344 147.542969 203.367188 148.070312 C 203.46875 148.65625 203.539062 149.253906 203.765625 149.808594 C 203.890625 150.109375 204.054688 150.351562 204.230469 150.625 C 204.316406 150.761719 204.398438 150.886719 204.523438 150.996094 C 204.5625 151.027344 204.605469 151.0625 204.644531 151.09375 C 204.652344 151.105469 204.664062 151.125 204.675781 151.148438 C 204.964844 151.644531 205.144531 152.289062 205.238281 152.851562 C 205.335938 153.433594 205.355469 154.023438 205.410156 154.613281 C 205.464844 155.167969 205.472656 155.792969 205.863281 156.230469 C 206.050781 156.441406 206.371094 156.308594 206.453125 156.074219 C 206.644531 155.519531 206.371094 154.882812 206.199219 154.351562 " fill-opacity="1" fill-rule="nonzero"/><g clip-path="url(#ce7316101d)"><path fill="#4d4d4d" d="M 109.550781 184.730469 C 109.550781 184.730469 109.691406 186.769531 110.128906 188.714844 C 110.191406 188.992188 110.257812 189.269531 110.332031 189.539062 C 110.679688 191.746094 112.550781 193.207031 114.707031 193.261719 C 114.855469 193.289062 115.003906 193.320312 115.148438 193.351562 C 116.578125 193.691406 124.703125 193.226562 124.703125 193.226562 C 124.703125 193.226562 121.4375 193.757812 118.53125 194.289062 C 117.949219 194.394531 117.382812 194.503906 116.859375 194.601562 C 114.886719 194.726562 112.902344 195.71875 112.222656 197.714844 C 112.089844 198.078125 112.007812 198.453125 111.976562 198.835938 C 111.945312 199.238281 111.964844 199.636719 112.039062 200.03125 C 112.050781 200.554688 112.074219 201.109375 112.101562 201.652344 C 112.179688 203.277344 112.289062 204.757812 112.289062 204.757812 C 112.289062 204.757812 111.25 201.679688 110.183594 199.585938 C 109.996094 199.207031 109.785156 198.839844 109.550781 198.484375 C 108.691406 196.945312 106.9375 196.417969 105.300781 196.449219 C 104.894531 196.453125 104.40625 196.484375 103.871094 196.527344 C 100.644531 196.796875 95.582031 197.644531 95.582031 197.644531 C 95.582031 197.644531 101.015625 196.128906 103.636719 195.414062 C 104.074219 195.296875 104.429688 195.199219 104.671875 195.136719 C 105.558594 194.90625 106.378906 194.527344 107.132812 194 C 107.449219 193.769531 107.738281 193.507812 107.992188 193.207031 C 108.226562 192.9375 108.410156 192.640625 108.542969 192.3125 C 109.082031 190.988281 109.550781 184.730469 109.550781 184.730469 Z M 109.550781 184.730469 " fill-opacity="1" fill-rule="nonzero"/></g><g clip-path="url(#504af477dd)"><path fill="#4d4d4d" d="M 268.589844 184.730469 C 268.589844 184.730469 268.730469 186.769531 269.167969 188.714844 C 269.230469 188.992188 269.296875 189.269531 269.371094 189.539062 C 269.71875 191.746094 271.589844 193.207031 273.746094 193.261719 C 273.894531 193.289062 274.042969 193.320312 274.1875 193.351562 C 275.617188 193.691406 283.742188 193.226562 283.742188 193.226562 C 283.742188 193.226562 280.476562 193.757812 277.570312 194.289062 C 276.988281 194.394531 276.421875 194.503906 275.898438 194.601562 C 273.925781 194.726562 271.941406 195.71875 271.261719 197.714844 C 271.128906 198.078125 271.046875 198.453125 271.015625 198.835938 C 270.984375 199.238281 271.007812 199.636719 271.078125 200.03125 C 271.09375 200.554688 271.113281 201.109375 271.140625 201.652344 C 271.21875 203.277344 271.328125 204.757812 271.328125 204.757812 C 271.328125 204.757812 270.289062 201.679688 269.222656 199.585938 C 269.035156 199.207031 268.824219 198.839844 268.589844 198.484375 C 267.730469 196.945312 265.980469 196.417969 264.339844 196.449219 C 263.933594 196.453125 263.449219 196.484375 262.910156 196.527344 C 259.6875 196.796875 254.621094 197.644531 254.621094 197.644531 C 254.621094 197.644531 260.054688 196.128906 262.675781 195.414062 C 263.113281 195.296875 263.46875 195.199219 263.710938 195.136719 C 264.601562 194.90625 265.421875 194.527344 266.171875 194 C 266.492188 193.769531 266.777344 193.507812 267.035156 193.207031 C 267.265625 192.9375 267.449219 192.640625 267.585938 192.3125 C 268.121094 190.988281 268.589844 184.730469 268.589844 184.730469 Z M 268.589844 184.730469 " fill-opacity="1" fill-rule="nonzero"/></g></svg>